<svg width="36" height="36" viewBox="0 0 36 36" fill="none" xmlns="http://www.w3.org/2000/svg">
<g clip-path="url(#clip0_6_93)">
<path d="M20.4 7.5228C20.4 6.6816 19.7184 6 18.8772 6H17.124C16.2816 6 15.6 6.6816 15.6 7.5228C15.6 8.2164 15.1248 8.8116 14.478 9.066C14.376 9.1068 14.274 9.15 14.1744 9.1932C13.5372 9.4692 12.78 9.3852 12.288 8.8944C12.0025 8.60905 11.6153 8.44876 11.2116 8.44876C10.8079 8.44876 10.4207 8.60905 10.1352 8.8944L8.8944 10.1352C8.60905 10.4207 8.44876 10.8079 8.44876 11.2116C8.44876 11.6153 8.60905 12.0025 8.8944 12.288V12.288C9.3864 12.78 9.4704 13.536 9.192 14.1744C9.14826 14.2749 9.10625 14.3761 9.066 14.478C8.8116 15.1248 8.2164 15.6 7.5228 15.6C6.6816 15.6 6 16.2816 6 17.1228V18.8772C6 19.7184 6.6816 20.4 7.5228 20.4C8.2164 20.4 8.8116 20.8752 9.066 21.522C9.1068 21.624 9.15 21.726 9.192 21.8256C9.4692 22.4628 9.3852 23.22 8.8944 23.712C8.60905 23.9976 8.44876 24.3847 8.44876 24.7884C8.44876 25.1921 8.60905 25.5793 8.8944 25.8648L10.1352 27.1056C10.4207 27.3909 10.8079 27.5512 11.2116 27.5512C11.6153 27.5512 12.0025 27.3909 12.288 27.1056C12.78 26.6136 13.536 26.5296 14.1744 26.8068C14.274 26.8512 14.376 26.8932 14.478 26.934C15.1248 27.1884 15.6 27.7836 15.6 28.4772C15.6 29.3184 16.2816 30 17.1228 30H18.8772C19.7184 30 20.4 29.3184 20.4 28.4772C20.4 27.7836 20.8752 27.1884 21.522 26.9328C21.624 26.8932 21.726 26.8512 21.8256 26.808C22.4628 26.5296 23.22 26.6148 23.7108 27.1056C23.8522 27.2471 24.0201 27.3593 24.2049 27.4359C24.3897 27.5124 24.5878 27.5518 24.7878 27.5518C24.9878 27.5518 25.1859 27.5124 25.3707 27.4359C25.5555 27.3593 25.7234 27.2471 25.8648 27.1056L27.1056 25.8648C27.3909 25.5793 27.5512 25.1921 27.5512 24.7884C27.5512 24.3847 27.3909 23.9976 27.1056 23.712V23.712C26.6136 23.22 26.5296 22.464 26.8068 21.8256C26.8512 21.726 26.8932 21.624 26.934 21.522C27.1884 20.8752 27.7836 20.4 28.4772 20.4C29.3184 20.4 30 19.7184 30 18.8772V17.124C30 16.2828 29.3184 15.6012 28.4772 15.6012C27.7836 15.6012 27.1884 15.126 26.9328 14.4792C26.8926 14.3773 26.8506 14.2761 26.8068 14.1756C26.5308 13.5384 26.6148 12.7812 27.1056 12.2892C27.3909 12.0037 27.5512 11.6165 27.5512 11.2128C27.5512 10.8091 27.3909 10.4219 27.1056 10.1364L25.8648 8.8956C25.5793 8.61025 25.1921 8.44996 24.7884 8.44996C24.3847 8.44996 23.9976 8.61025 23.712 8.8956V8.8956C23.22 9.3876 22.464 9.4716 21.8256 9.1944C21.7251 9.15025 21.6239 9.10784 21.522 9.0672C20.8752 8.8116 20.4 8.2164 20.4 7.524V7.5228Z" stroke="black" stroke-linecap="round" stroke-linejoin="round"/>
<path d="M23 18C23 19.3261 22.4732 20.5979 21.5355 21.5355C20.5979 22.4732 19.3261 23 18 23C16.6739 23 15.4021 22.4732 14.4645 21.5355C13.5268 20.5979 13 19.3261 13 18C13 16.6739 13.5268 15.4021 14.4645 14.4645C15.4021 13.5268 16.6739 13 18 13C19.3261 13 20.5979 13.5268 21.5355 14.4645C22.4732 15.4021 23 16.6739 23 18Z" stroke="black" stroke-linecap="round" stroke-linejoin="round"/>
</g>
<defs>
<clipPath id="clip0_6_93">
<rect width="36" height="36" fill="white"/>
</clipPath>
</defs>
</svg>
