<svg width="23" height="23" viewBox="0 0 23 23" fill="none" xmlns="http://www.w3.org/2000/svg">
<path d="M16.7183 19.0123L16.105 14.1018C16.0181 13.4062 15.6801 12.7664 15.1545 12.3026C14.6289 11.8388 13.952 11.583 13.2511 11.5833H11.1389C10.4383 11.5834 9.76187 11.8395 9.23671 12.3032C8.71155 12.767 8.3738 13.4065 8.28692 14.1018L7.67263 19.0123C7.63892 19.282 7.66298 19.5559 7.74324 19.8157C7.82349 20.0754 7.95809 20.3152 8.1381 20.5189C8.31811 20.7227 8.5394 20.8858 8.7873 20.9975C9.03519 21.1091 9.304 21.1668 9.57588 21.1666H14.816C15.0878 21.1666 15.3566 21.1089 15.6043 20.9972C15.8521 20.8854 16.0733 20.7223 16.2532 20.5186C16.4331 20.3148 16.5676 20.0751 16.6478 19.8154C16.728 19.5557 16.752 19.282 16.7183 19.0123V19.0123Z" stroke="black" stroke-linecap="round" stroke-linejoin="round"/>
<path d="M12.1959 7.75C13.7837 7.75 15.0709 6.46282 15.0709 4.875C15.0709 3.28718 13.7837 2 12.1959 2C10.6081 2 9.32092 3.28718 9.32092 4.875C9.32092 6.46282 10.6081 7.75 12.1959 7.75Z" stroke="black" stroke-linecap="round" stroke-linejoin="round"/>
<path d="M4.52922 10.6248C5.58776 10.6248 6.44588 9.76672 6.44588 8.70817C6.44588 7.64962 5.58776 6.7915 4.52922 6.7915C3.47067 6.7915 2.61255 7.64962 2.61255 8.70817C2.61255 9.76672 3.47067 10.6248 4.52922 10.6248Z" stroke="black" stroke-linecap="round" stroke-linejoin="round"/>
<path d="M19.6126 10.9166C20.6711 10.9166 21.5293 10.0585 21.5293 8.99992C21.5293 7.94137 20.6711 7.08325 19.6126 7.08325C18.554 7.08325 17.6959 7.94137 17.6959 8.99992C17.6959 10.0585 18.554 10.9166 19.6126 10.9166Z" stroke="black" stroke-linecap="round" stroke-linejoin="round"/>
<path d="M4.52928 13.5H4.23603C3.78232 13.4999 3.3433 13.6608 2.99707 13.9541C2.65085 14.2473 2.41987 14.6538 2.34524 15.1014L2.02611 17.018C1.98031 17.2926 1.99489 17.5739 2.06882 17.8423C2.14276 18.1107 2.27427 18.3598 2.45422 18.5722C2.63418 18.7847 2.85824 18.9553 3.11084 19.0724C3.36344 19.1894 3.6385 19.25 3.9169 19.25H7.40428" stroke="black" stroke-linecap="round" stroke-linejoin="round"/>
<path d="M19.5709 13.0833H19.8642C20.3179 13.0832 20.7569 13.2441 21.1031 13.5373C21.4494 13.8306 21.6803 14.2371 21.755 14.6846L22.0741 16.6013C22.1199 16.8759 22.1053 17.1572 22.0314 17.4256C21.9574 17.694 21.8259 17.9431 21.646 18.1555C21.466 18.3679 21.242 18.5386 20.9894 18.6556C20.7368 18.7727 20.4617 18.8333 20.1833 18.8333H16.6959" stroke="black" stroke-linecap="round" stroke-linejoin="round"/>
</svg>
