<svg width="12" height="12" viewBox="0 0 12 12" fill="none" xmlns="http://www.w3.org/2000/svg">
<path d="M8.237 2.704L9.296 3.7625M8.918 1.7715L6.0545 4.635C5.90654 4.78275 5.80564 4.97099 5.7645 5.176L5.5 6.5L6.824 6.235C7.029 6.194 7.217 6.0935 7.365 5.9455L10.2285 3.082C10.3145 2.99595 10.3828 2.8938 10.4294 2.78137C10.4759 2.66894 10.4999 2.54844 10.4999 2.42675C10.4999 2.30506 10.4759 2.18456 10.4294 2.07213C10.3828 1.9597 10.3145 1.85755 10.2285 1.7715C10.1425 1.68545 10.0403 1.61719 9.92787 1.57062C9.81544 1.52405 9.69494 1.50009 9.57325 1.50009C9.45156 1.50009 9.33106 1.52405 9.21863 1.57062C9.1062 1.61719 9.00405 1.68545 8.918 1.7715V1.7715Z" stroke="black" stroke-linecap="round" stroke-linejoin="round"/>
<path d="M9.5 7.5V9C9.5 9.26522 9.39464 9.51957 9.20711 9.70711C9.01957 9.89464 8.76522 10 8.5 10H3C2.73478 10 2.48043 9.89464 2.29289 9.70711C2.10536 9.51957 2 9.26522 2 9V3.5C2 3.23478 2.10536 2.98043 2.29289 2.79289C2.48043 2.60536 2.73478 2.5 3 2.5H4.5" stroke="black" stroke-linecap="round" stroke-linejoin="round"/>
</svg>
