<svg width="30" height="30" viewBox="0 0 30 30" fill="none" xmlns="http://www.w3.org/2000/svg">
<path d="M23.75 8.75H6.25C4.86929 8.75 3.75 9.86929 3.75 11.25V21.25C3.75 22.6307 4.86929 23.75 6.25 23.75H23.75C25.1307 23.75 26.25 22.6307 26.25 21.25V11.25C26.25 9.86929 25.1307 8.75 23.75 8.75Z" stroke="black" stroke-linecap="round" stroke-linejoin="round"/>
<path d="M11.25 7.5C11.25 6.83696 11.5134 6.20107 11.9822 5.73223C12.4511 5.26339 13.087 5 13.75 5H16.25C16.913 5 17.5489 5.26339 18.0178 5.73223C18.4866 6.20107 18.75 6.83696 18.75 7.5V8.75H11.25V7.5Z" stroke="black" stroke-linecap="round" stroke-linejoin="round"/>
<path d="M12.5 15L12.7638 15.1325C13.4581 15.4797 14.2237 15.6605 15 15.6605C15.7763 15.6605 16.5419 15.4797 17.2362 15.1325L17.5 15" stroke="black" stroke-linecap="round" stroke-linejoin="round"/>
</svg>
