<svg width="11" height="10" viewBox="0 0 11 10" fill="none" xmlns="http://www.w3.org/2000/svg">
<path d="M10 8.11111V3.66667C10 3.43092 9.90518 3.20483 9.7364 3.03813C9.56761 2.87143 9.33869 2.77778 9.1 2.77778H6.0562C5.88903 2.77777 5.72516 2.73178 5.58297 2.64496C5.44078 2.55814 5.32588 2.43392 5.25115 2.28622L4.84885 1.49156C4.77409 1.34379 4.65912 1.21953 4.51684 1.1327C4.37456 1.04588 4.2106 0.999923 4.04335 1H1.9C1.66131 1 1.43239 1.09365 1.2636 1.26035C1.09482 1.42705 1 1.65314 1 1.88889V8.11111C1 8.34686 1.09482 8.57295 1.2636 8.73965C1.43239 8.90635 1.66131 9 1.9 9H9.1C9.33869 9 9.56761 8.90635 9.7364 8.73965C9.90518 8.57295 10 8.34686 10 8.11111Z" stroke="black" stroke-linecap="round" stroke-linejoin="round"/>
<path d="M5.5 5V6M5.5 6V7M5.5 6H7M5.5 6H4" stroke="black" stroke-linecap="round" stroke-linejoin="round"/>
</svg>
