<svg width="20" height="20" viewBox="0 0 20 20" fill="none" xmlns="http://www.w3.org/2000/svg">
<path d="M10.6008 4.16917L9.37917 4.16667C6.5925 4.16 4.17333 6.42417 4.15417 9.16667V12.325C4.15417 12.9833 4.07083 13.6258 3.71167 14.1733L3.4725 14.5383C3.10833 15.0917 3.5 15.8333 4.15417 15.8333H15.8458C16.5 15.8333 16.8908 15.0917 16.5275 14.5383L16.2883 14.1733C15.93 13.6258 15.8458 12.9825 15.8458 12.3242V9.16751C15.8125 6.42417 13.3875 4.17584 10.6008 4.16917V4.16917Z" stroke="black" stroke-linecap="round" stroke-linejoin="round"/>
<path d="M12.5 15.8333C12.5 16.4964 12.2366 17.1323 11.7678 17.6011C11.2989 18.0699 10.663 18.3333 10 18.3333C9.33696 18.3333 8.70107 18.0699 8.23223 17.6011C7.76339 17.1323 7.5 16.4964 7.5 15.8333" stroke="black" stroke-linecap="round" stroke-linejoin="round"/>
<path d="M10 1.66666C10.442 1.66666 10.866 1.84225 11.1785 2.15481C11.4911 2.46737 11.6667 2.8913 11.6667 3.33332V4.16666H8.33334V3.33332C8.33334 2.8913 8.50893 2.46737 8.82149 2.15481C9.13405 1.84225 9.55798 1.66666 10 1.66666Z" stroke="black" stroke-linecap="round" stroke-linejoin="round"/>
</svg>
