<svg width="23" height="23" viewBox="0 0 23 23" fill="none" xmlns="http://www.w3.org/2000/svg">
<path d="M4.79166 6.70834H18.0071C18.2749 6.70835 18.5397 6.76447 18.7844 6.87309C19.0292 6.9817 19.2485 7.14039 19.4281 7.33894C19.6078 7.53749 19.7439 7.77148 19.8276 8.02584C19.9113 8.28019 19.9408 8.54927 19.9142 8.81572L19.3392 14.5657C19.2919 15.0387 19.0705 15.4772 18.7181 15.7961C18.3657 16.115 17.9074 16.2917 17.4321 16.2917H8.28C7.83674 16.2919 7.40713 16.1384 7.0643 15.8574C6.72147 15.5764 6.48663 15.1853 6.39975 14.7507L4.79166 6.70834Z" stroke="black" stroke-linecap="round" stroke-linejoin="round"/>
<path d="M4.79166 6.70833L4.01541 3.60046C3.9635 3.39322 3.84383 3.20927 3.6754 3.07784C3.50698 2.9464 3.29947 2.87501 3.08583 2.875H1.91666" stroke="black" stroke-linecap="round" stroke-linejoin="round"/>
<path d="M7.66666 20.125H9.58333" stroke="black" stroke-linecap="round" stroke-linejoin="round"/>
<path d="M15.3333 20.125H17.25" stroke="black" stroke-linecap="round" stroke-linejoin="round"/>
</svg>
